<?xml version="1.0" encoding="UTF-8"?>
<svg version="1.1" xmlns="http://www.w3.org/2000/svg" width="500" height="500">
<path d="M0 0 C165 0 330 0 500 0 C500 165 500 330 500 500 C335 500 170 500 0 500 C0 335 0 170 0 0 Z " fill="#FEFEFF" transform="translate(0,0)"/>
<path d="M0 0 C62.04 0 124.08 0 188 0 C188 13.69315068 188 13.69315068 182.57421875 19.53515625 C177.50963667 24.02392021 173.0618636 25.24745518 166.41630554 25.27415466 C165.44443691 25.28200968 165.44443691 25.28200968 164.45293456 25.29002339 C162.28976762 25.30498151 160.12683809 25.3057276 157.96362305 25.30639648 C156.4093791 25.31402081 154.85513892 25.32244878 153.30090332 25.33161926 C149.08384728 25.35354443 144.86686374 25.36236051 140.64975715 25.36744571 C138.01322368 25.37109167 135.37670913 25.37733298 132.74018288 25.3844471 C123.53682243 25.40893485 114.3335183 25.421992 105.13012695 25.42553711 C96.56004817 25.42917171 87.99032766 25.45906328 79.42035836 25.50094169 C72.05542518 25.53566598 64.69061062 25.55108592 57.32559615 25.55178314 C52.92996944 25.55257524 48.53470779 25.5612827 44.13916588 25.58978081 C40.00297812 25.61599829 35.86745714 25.61814653 31.73122406 25.60212517 C30.2171489 25.60031357 28.70303508 25.60697537 27.18904305 25.62294388 C19.10406378 25.70298844 12.25526413 25.74802982 6 20 C-0.22826195 13.28003316 0 9.87529146 0 0 Z " fill="#3BB7FF" transform="translate(150,319)"/>
<path d="M0 0 C2.01105269 0.00850596 4.01925733 -0.02025681 6.0300293 -0.05200195 C7.94138672 -0.05103516 7.94138672 -0.05103516 9.89135742 -0.05004883 C11.05465576 -0.05190186 12.2179541 -0.05375488 13.41650391 -0.05566406 C17.23672797 0.54966869 18.84188634 1.76763255 21.58276367 4.44604492 C24.03665594 8.12688332 23.85130147 10.8765577 23.80981445 15.13037109 C23.81010651 15.91109482 23.81039856 16.69181854 23.81069946 17.49620056 C23.80930591 20.07725125 23.7937436 22.6580134 23.77807617 25.23901367 C23.77434613 27.02834414 23.77149912 28.81767665 23.76950073 30.60700989 C23.76186357 35.31706377 23.74221436 40.02699435 23.72009277 44.73699951 C23.69603962 50.38794151 23.68685376 56.03892472 23.67518616 61.68990326 C23.65579002 70.27536957 23.61746806 78.86056534 23.58276367 87.44604492 C9.06276367 87.44604492 -5.45723633 87.44604492 -20.41723633 87.44604492 C-20.57767157 68.22055565 -20.57767157 68.22055565 -20.61254883 60.01245117 C-20.63644124 54.41610506 -20.6646769 48.82002125 -20.71899414 43.22387695 C-20.76252129 38.71105707 -20.78638803 34.19851855 -20.7967453 29.68550491 C-20.80412436 27.96552731 -20.81853411 26.24556476 -20.84015656 24.52570724 C-20.86928262 22.11258671 -20.87318861 19.70062213 -20.87133789 17.28735352 C-20.88571899 16.57956757 -20.9001001 15.87178162 -20.91491699 15.14254761 C-20.86594827 9.22432788 -18.67312738 5.71151386 -14.57714844 1.59814453 C-10.15685545 -0.75964485 -4.89712428 -0.03166373 0 0 Z " fill="#3AB6FF" transform="translate(301.417236328125,218.553955078125)"/>
<path d="M0 0 C1.21720482 0.00136711 1.21720482 0.00136711 2.45899963 0.00276184 C3.29250443 -0.00152328 4.12600922 -0.00580841 4.98477173 -0.01022339 C6.74920238 -0.01597126 8.51365674 -0.01646359 10.27809143 -0.01213074 C12.98008121 -0.00897336 15.68097367 -0.03241436 18.38282776 -0.05778503 C20.095717 -0.06005822 21.80860919 -0.06076143 23.52149963 -0.05973816 C24.33094528 -0.06894791 25.14039093 -0.07815765 25.97436523 -0.08764648 C31.60044852 -0.04117601 31.60044852 -0.04117601 33.76872253 1.59721375 C35.97409333 4.51901782 35.50347682 8.02932211 35.49024963 11.54963684 C35.49549149 12.35715897 35.50073334 13.16468109 35.50613403 13.99667358 C35.51255474 15.70385082 35.51121656 17.41107229 35.50270081 19.11824036 C35.49419728 21.72833735 35.52293801 24.33624089 35.55470276 26.94612122 C35.55631507 28.60562577 35.55573667 30.26513419 35.55274963 31.92463684 C35.56398361 32.70391037 35.57521759 33.4831839 35.58679199 34.28607178 C35.54095366 37.85691002 35.36039691 39.90036138 33.18190002 42.79206848 C31.05665588 44.30354309 31.05665588 44.30354309 28.55665588 44.86604309 C24.89485053 44.04213689 24.04621347 42.44408441 22.05665588 39.30354309 C21.45641502 36.53415349 21.36224015 33.81826102 21.30665588 30.99104309 C21.27700745 30.25047668 21.24735901 29.50991028 21.21681213 28.74690247 C21.14659743 26.93302263 21.09930541 25.11828031 21.05665588 23.30354309 C20.46239807 23.90303772 19.86814026 24.50253235 19.25587463 25.12019348 C17.01399482 27.37928836 14.76974057 29.63599182 12.52394104 31.89118958 C11.5591413 32.86096582 10.59524693 33.83164379 9.63233948 34.80329895 C0.60822392 43.90723239 0.60822392 43.90723239 -3.93943787 47.77619934 C-7.24225796 50.60003903 -10.27934803 53.63665883 -13.29100037 56.76448059 C-13.75654327 57.24499374 -14.22208618 57.7255069 -14.70173645 58.22058105 C-16.62833169 60.21003014 -18.55370011 62.19982029 -20.45530701 64.21321106 C-21.86583931 65.70272935 -23.29500318 67.17209455 -24.72850037 68.63948059 C-25.56260437 69.51137024 -26.39670837 70.38325989 -27.25608826 71.28157043 C-30.59572154 73.79441162 -32.78299202 74.28720935 -36.94334412 74.30354309 C-39.09568787 73.07527161 -39.09568787 73.07527161 -40.88084412 71.18244934 C-41.54857849 70.49344543 -42.21631287 69.80444153 -42.90428162 69.09455872 C-43.57717224 68.35914856 -44.25006287 67.6237384 -44.94334412 66.86604309 C-45.61623474 66.16543762 -46.28912537 65.46483215 -46.98240662 64.74299622 C-50.95117306 60.57885613 -54.72603969 56.27563199 -58.40037537 51.85017395 C-59.97015213 50.04556628 -59.97015213 50.04556628 -62.94334412 49.30354309 C-63.6587738 50.32190247 -64.37420349 51.34026184 -65.11131287 52.38948059 C-70.64764451 60.25907451 -76.20846043 68.11118367 -81.81834412 75.92854309 C-82.34065613 76.66121399 -82.86296814 77.39388489 -83.40110779 78.14875793 C-85.88594615 81.60025179 -88.42422267 85.00636626 -91.09178162 88.31916809 C-91.5498822 88.89183411 -92.00798279 89.46450012 -92.47996521 90.05451965 C-93.94334412 91.30354309 -93.94334412 91.30354309 -97.69334412 91.42854309 C-100.94334412 90.30354309 -100.94334412 90.30354309 -102.94334412 87.30354309 C-102.76368987 81.64776135 -101.2029542 78.72419062 -97.63084412 74.42854309 C-96.71094732 73.2918266 -95.79443526 72.15236491 -94.88084412 71.01057434 C-94.15768005 70.11072815 -94.15768005 70.11072815 -93.41990662 69.19270325 C-90.86429332 65.92297181 -88.50521017 62.51841241 -86.13084412 59.11604309 C-85.63519958 58.41430969 -85.13955505 57.71257629 -84.62889099 56.98957825 C-81.8873845 53.10577738 -79.19253522 49.19594101 -76.53709412 45.25276184 C-75.40200809 43.60279475 -74.26659954 41.95304948 -73.13084412 40.30354309 C-72.61610535 39.51955139 -72.10136658 38.73555969 -71.57102966 37.92781067 C-69.05743247 34.31685797 -67.63834055 32.57732957 -63.46287537 30.93244934 C-58.50823047 31.45485918 -56.66815051 33.63455672 -53.44334412 37.24104309 C-52.87873474 37.83916809 -52.31412537 38.43729309 -51.73240662 39.05354309 C-50.11140775 40.78285754 -48.52216937 42.53574041 -46.94334412 44.30354309 C-46.21115662 45.11951965 -45.47896912 45.93549622 -44.72459412 46.77619934 C-42.64564758 49.14236876 -40.59833818 51.53415569 -38.55662537 53.93244934 C-37.16527078 55.53121718 -37.16527078 55.53121718 -34.94334412 57.30354309 C-31.07314042 57.04454182 -29.18257207 54.90664658 -26.54197693 52.24275208 C-25.68138672 51.38193527 -24.82079651 50.52111847 -23.93412781 49.63421631 C-23.01420044 48.69880508 -22.09427307 47.76339386 -21.14646912 46.79963684 C-20.18877192 45.83634233 -19.23040865 44.8737096 -18.27140808 43.91171265 C-15.75275181 41.38161826 -13.24323573 38.84264381 -10.73551941 36.30171204 C-8.1735368 33.70900632 -5.6030091 31.12480354 -3.03318787 28.53987122 C2.00515429 23.46938319 7.03388922 18.38946429 12.05665588 13.30354309 C10.15980042 13.26487122 10.15980042 13.26487122 8.22462463 13.22541809 C6.5644337 13.16914043 4.90427879 13.11179302 3.24415588 13.05354309 C2.41077698 13.0393634 1.57739807 13.02518372 0.71876526 13.01057434 C-5.42477523 12.76384581 -5.42477523 12.76384581 -8.02928162 10.45198059 C-9.32507754 7.4063064 -8.82996513 5.44081743 -7.94334412 2.30354309 C-5.34877409 -0.29102694 -3.53646636 0.04488907 0 0 Z " fill="#3BB7FF" transform="translate(277.94334411621094,155.6964569091797)"/>
<path d="M0 0 C1.9992238 0.00097003 3.99831114 -0.04185045 5.99707031 -0.08496094 C16.77777493 -0.10682849 16.77777493 -0.10682849 20.42675781 2.78222656 C23.76902862 6.89215674 24.89005677 9.50506957 24.86474609 14.8203125 C24.86459503 15.88111023 24.86444397 16.94190796 24.86428833 18.03485107 C24.85396576 19.17351624 24.84364319 20.3121814 24.83300781 21.48535156 C24.83017792 22.65608215 24.82734802 23.82681274 24.82443237 25.03302002 C24.81323687 28.77244281 24.78813307 32.51162615 24.76269531 36.25097656 C24.75266471 38.78612935 24.743539 41.3212859 24.73535156 43.85644531 C24.71500117 50.07145555 24.67585033 56.28594799 24.63769531 62.50097656 C10.11769531 62.50097656 -4.40230469 62.50097656 -19.36230469 62.50097656 C-19.43117977 54.90175965 -19.49091486 47.30362607 -19.52709961 39.7043457 C-19.54218431 37.11934743 -19.5626547 34.53437474 -19.58862305 31.94946289 C-19.6250191 28.23349696 -19.64203453 24.51786949 -19.65527344 20.80175781 C-19.67075729 19.64638016 -19.68624115 18.4910025 -19.70219421 17.3006134 C-19.70242081 16.21987045 -19.7026474 15.1391275 -19.70288086 14.02563477 C-19.70954269 13.07743362 -19.71620453 12.12923248 -19.72306824 11.15229797 C-19.18111511 7.16937914 -17.3882968 4.52893903 -14.58251953 1.71777344 C-10.15709483 -0.70759678 -4.93263638 -0.01690086 0 0 Z " fill="#39B6FF" transform="translate(241.3623046875,243.4990234375)"/>
<path d="M0 0 C6.44732331 3.83588647 10.48666166 9.05815284 13.375 15.9375 C13.71254269 18.65190582 13.90073892 21.04516155 13.875 23.75 C13.86855469 24.45632568 13.86210937 25.16265137 13.85546875 25.89038086 C13.5614002 34.31099506 10.51876835 39.13818518 4.5625 44.8125 C-2.94201632 50.8356779 -10.11313332 51.83848872 -19.625 50.9375 C-27.4332068 49.54268898 -33.17501284 44.13668008 -38.08203125 38.1640625 C-41.99396934 31.83308141 -41.4699598 24.07439261 -40.625 16.9375 C-38.44014085 9.01738556 -33.55859747 4.11665464 -26.625 -0.0625 C-19.00339365 -3.90565295 -7.70016153 -3.56293623 0 0 Z " fill="#3DB7FF" transform="translate(234.625,59.0625)"/>
<path d="M0 0 C11 0 11 0 13.3671875 1.80859375 C13.86476563 2.67613281 14.36234375 3.54367187 14.875 4.4375 C15.49246094 5.42363281 16.10992187 6.40976562 16.74609375 7.42578125 C17.08753418 7.98475098 17.42897461 8.5437207 17.78076172 9.11962891 C20.26721618 12.95436503 23.13943793 16.51517325 25.9375 20.125 C26.51806152 20.88353271 27.09862305 21.64206543 27.69677734 22.42358398 C30.20735477 25.8325064 30.20735477 25.8325064 33 29 C33.33 19.43 33.66 9.86 34 0 C37.96 0 41.92 0 46 0 C46 17.16 46 34.32 46 52 C36 52 36 52 33.58203125 50.296875 C32.99808594 49.45640625 32.41414063 48.6159375 31.8125 47.75 C31.09835937 46.76902344 30.38421875 45.78804688 29.6484375 44.77734375 C29.2472168 44.19968262 28.84599609 43.62202148 28.43261719 43.02685547 C26.10423043 39.7326723 23.64747474 36.5359538 21.20947266 33.32250977 C18.12015617 29.22964678 15.06347913 25.11223775 12 21 C11.67 31.23 11.34 41.46 11 52 C7.37 52 3.74 52 0 52 C0 34.84 0 17.68 0 0 Z " fill="#3EB8FF" transform="translate(270,387)"/>
<path d="M0 0 C3.96 0 7.92 0 12 0 C12 17.16 12 34.32 12 52 C1 52 1 52 -2.3125 49.02734375 C-3.24537277 47.68913542 -4.13999556 46.32366214 -5 44.9375 C-5.99454201 43.47769447 -6.98934036 42.01806354 -7.984375 40.55859375 C-8.47744141 39.80690918 -8.97050781 39.05522461 -9.47851562 38.28076172 C-11.43779399 35.34373052 -13.52286021 32.51200942 -15.62988281 29.67993164 C-17.77063904 26.79945962 -19.88250976 23.89761822 -22 21 C-22.33 31.23 -22.66 41.46 -23 52 C-26.63 52 -30.26 52 -34 52 C-34 35.17 -34 18.34 -34 1 C-23 1 -23 1 -19.14453125 4.55078125 C-17.99765431 6.11206481 -16.88738865 7.70080913 -15.8125 9.3125 C-14.98588867 10.46202148 -14.98588867 10.46202148 -14.14257812 11.63476562 C-12.39911714 14.06914625 -10.70019035 16.53520427 -9 19 C-6.36 22.63 -3.72 26.26 -1 30 C-0.67 20.1 -0.34 10.2 0 0 Z " fill="#3EB8FF" transform="translate(188,387)"/>
<path d="M0 0 C1.27617187 -0.02900391 2.55234375 -0.05800781 3.8671875 -0.08789062 C14.40391071 -0.15938196 14.40391071 -0.15938196 18.015625 2.08203125 C21.08804461 5.14907949 22.15818183 7.05232028 22.47705078 11.42871094 C22.46657715 12.62270508 22.45610352 13.81669922 22.4453125 15.046875 C22.44031738 16.21444336 22.43532227 17.38201172 22.43017578 18.58496094 C22.41196777 20.06254883 22.39375977 21.54013672 22.375 23.0625 C22.33375 27.765 22.2925 32.4675 22.25 37.3125 C8.06 37.3125 -6.13 37.3125 -20.75 37.3125 C-20.853125 32.48625 -20.95625 27.66 -21.0625 22.6875 C-21.13078003 20.42011963 -21.13078003 20.42011963 -21.20043945 18.10693359 C-21.31518959 7.05094312 -21.31518959 7.05094312 -18.35546875 3.4140625 C-12.83579435 -1.03808867 -6.85758751 0.05132925 0 0 Z " fill="#38B6FF" transform="translate(183.75,268.6875)"/>
<path d="M0 0 C0 5.30479934 -1.5362057 6.18982627 -5 10 C-5.54527344 9.71125 -6.09054687 9.4225 -6.65234375 9.125 C-12.15250186 6.41722985 -16.85868315 4.87602314 -23 6 C-27.39477388 8.07300655 -30.0826994 10.63561528 -32.30078125 15.015625 C-33.91358326 19.59273908 -33.94863256 23.81027109 -32.01171875 28.28125 C-29.83674543 31.99823226 -28.16430491 34.50587994 -24 36 C-21.12034021 36.27882045 -21.12034021 36.27882045 -18.0625 36.1875 C-17.04285156 36.18105469 -16.02320313 36.17460938 -14.97265625 36.16796875 C-12.21625952 36.01221966 -9.68621605 35.61837386 -7 35 C-7 32.36 -7 29.72 -7 27 C-10.96 27 -14.92 27 -19 27 C-19 23.7 -19 20.4 -19 17 C-11.41 17 -3.82 17 4 17 C5.1988121 38.33885533 5.1988121 38.33885533 1.984375 42.79296875 C-0.69797281 44.35499464 -2.99489228 45.24237425 -6 46 C-7.45599609 46.53560547 -7.45599609 46.53560547 -8.94140625 47.08203125 C-16.58987855 49.37754976 -24.90689918 48.98211346 -32.00390625 45.2578125 C-38.0881886 41.42388115 -43.20251771 37.211076 -45 30 C-45.87421381 21.60424847 -46.53577722 13.03808799 -41.546875 5.79296875 C-30.70017324 -6.77934465 -14.11516856 -9.29940517 0 0 Z " fill="#3DB8FF" transform="translate(302,62)"/>
<path d="M0 0 C13.2 0 26.4 0 40 0 C40 3.63 40 7.26 40 11 C30.76 11 21.52 11 12 11 C12 14.3 12 17.6 12 21 C19.92 21 27.84 21 36 21 C36 24.3 36 27.6 36 31 C28.08 31 20.16 31 12 31 C12 34.63 12 38.26 12 42 C21.24 42 30.48 42 40 42 C40 45.3 40 48.6 40 52 C26.8 52 13.6 52 0 52 C0 34.84 0 17.68 0 0 Z " fill="#41B9FF" transform="translate(382,387)"/>
<path d="M0 0 C3.63 0 7.26 0 11 0 C15.70803913 9.93994641 20.03467931 20.0206521 24.28857422 30.16113281 C25.39112208 32.78841765 26.49807933 35.4138152 27.60546875 38.0390625 C28.30754948 39.70822492 29.00938204 41.37749174 29.7109375 43.046875 C30.04209564 43.83213562 30.37325378 44.61739624 30.71444702 45.42645264 C33 50.88470648 33 50.88470648 33 52 C29.04 52 25.08 52 21 52 C19.35 48.37 17.7 44.74 16 41 C8.74 40.67 1.48 40.34 -6 40 C-6.495 42.475 -6.495 42.475 -7 45 C-7.89305874 47.39228689 -8.94896026 49.66943362 -10 52 C-13.96 52 -17.92 52 -22 52 C-15.20132741 34.43324351 -7.61376542 17.22405786 0 0 Z " fill="#3CB7FF" transform="translate(229,387)"/>
<path d="M0 0 C2.25022126 1.45814337 3.47900733 3.04511864 4.953125 5.265625 C2.973125 7.575625 0.993125 9.885625 -1.046875 12.265625 C-5.046875 11.265625 -5.046875 11.265625 -8.296875 9.703125 C-12.45781266 7.90331899 -15.52170702 7.76282856 -20.046875 8.265625 C-24.03993123 10.14914209 -25.68253852 11.64625298 -27.921875 15.453125 C-29.62116217 21.21182041 -29.89811918 25.89110177 -27.859375 31.578125 C-25.71885219 34.75200364 -24.44249125 36.42633287 -21.046875 38.265625 C-15.62601369 39.08798477 -10.82713775 39.1363534 -6.109375 36.140625 C-3.046875 34.265625 -3.046875 34.265625 -0.859375 34.765625 C1.2184307 36.48518834 3.11298861 38.29405029 4.953125 40.265625 C3.0457123 45.39667671 -0.89265168 46.82529893 -5.62109375 49.05078125 C-13.04350626 51.68290245 -20.21737021 51.46398849 -27.421875 48.265625 C-33.96801099 44.48696113 -39.30263691 38.90713257 -41.609375 31.59765625 C-43.01964502 24.08041339 -43.20705244 16.58560638 -39.171875 9.90234375 C-38.800625 9.36222656 -38.429375 8.82210938 -38.046875 8.265625 C-37.469375 7.37875 -36.891875 6.491875 -36.296875 5.578125 C-26.57836553 -4.41034307 -12.46730265 -5.34312971 0 0 Z " fill="#3DB7FF" transform="translate(368.046875,389.734375)"/>
<path d="M0 0 C12.87 0 25.74 0 39 0 C39 3.3 39 6.6 39 10 C29.76 10 20.52 10 11 10 C11 13.63 11 17.26 11 21 C18.92 21 26.84 21 35 21 C35 24.3 35 27.6 35 31 C27.08 31 19.16 31 11 31 C11 37.6 11 44.2 11 51 C7.37 51 3.74 51 0 51 C0 34.17 0 17.34 0 0 Z " fill="#39B6FF" transform="translate(81,388)"/>
<path d="M0 0 C4.78755886 2.11791637 7.73603576 4.36845843 9.8515625 9.3046875 C10.60451876 15.01460583 10.67731129 19.68166403 8.0390625 24.8671875 C6.95625 26.07375 6.95625 26.07375 5.8515625 27.3046875 C5.3359375 27.9028125 4.8203125 28.5009375 4.2890625 29.1171875 C0.71952912 32.06593247 -3.95025512 31.75177811 -8.34765625 31.72265625 C-12.79556028 31.05888257 -15.41763312 28.77591406 -18.1484375 25.3046875 C-21.23406487 20.42170816 -20.74544018 14.87173754 -20.1484375 9.3046875 C-16.23930985 0.88502795 -8.90123859 -2.88076449 0 0 Z " fill="#FCFEFF" transform="translate(226.1484375,67.6953125)"/>
<path d="M0 0 C3.96 0 7.92 0 12 0 C12 17.16 12 34.32 12 52 C8.04 52 4.08 52 0 52 C0 34.84 0 17.68 0 0 Z " fill="#44BAFF" transform="translate(129,387)"/>
<path d="M0 0 C2.22695405 2.22695405 2.96032175 3.967618 4.125 6.875 C4.47820312 7.73867188 4.83140625 8.60234375 5.1953125 9.4921875 C6 12 6 12 6 16 C2.04 16 -1.92 16 -6 16 C-4.23196827 10.52752083 -2.34565002 5.24978815 0 0 Z " fill="#F5FBFF" transform="translate(234,401)"/>
</svg>
